<svg version="1.1" xmlns="http://www.w3.org/2000/svg" viewBox="0 0 1082.5562078866055 638.6948305912663" width="1082.5562078866055" height="638.6948305912663">
  <!-- svg-source:excalidraw -->
  
  <defs>
    <style>
      @font-face {
        font-family: "Virgil";
        src: url("https://excalidraw.com/Virgil.woff2");
      }
      @font-face {
        font-family: "Cascadia";
        src: url("https://excalidraw.com/Cascadia.woff2");
      }
    </style>
  </defs>
  <rect x="0" y="0" width="1082.5562078866055" height="638.6948305912663" fill="#ffffff"></rect><g stroke-linecap="round" transform="translate(172.84572025931638 60.666656494140625) rotate(0 91.5 83.66666412353516)"><path d="M108.96 0.79 C120.57 1.81, 133.72 9.4, 143.82 16.27 C153.92 23.14, 163.17 32.45, 169.55 42.02 C175.94 51.59, 180.47 62.58, 182.14 73.7 C183.82 84.83, 183.23 97.99, 179.62 108.76 C176 119.54, 168.8 129.93, 160.46 138.33 C152.12 146.74, 141.03 154.31, 129.59 159.19 C118.15 164.08, 104.25 167.34, 91.83 167.64 C79.41 167.95, 66.51 165.48, 55.09 161.03 C43.67 156.57, 31.59 149.45, 23.3 140.92 C15.01 132.39, 9.19 120.73, 5.34 109.84 C1.5 98.96, -0.97 86.69, 0.23 75.61 C1.43 64.53, 6.52 53.38, 12.55 43.35 C18.59 33.33, 26.54 22.44, 36.43 15.45 C46.32 8.47, 58.68 3.43, 71.91 1.45 C85.15 -0.54, 107.62 2.58, 115.84 3.54 C124.05 4.5, 121.6 5.87, 121.18 7.22 M95.33 1.54 C107.18 0.73, 119.54 3.1, 130.58 7.94 C141.62 12.78, 153.3 21.93, 161.56 30.56 C169.83 39.2, 176.82 49.07, 180.15 59.74 C183.49 70.41, 183.38 83.04, 181.58 94.59 C179.79 106.14, 176 119.32, 169.39 129.05 C162.78 138.77, 152.09 146.93, 141.9 152.95 C131.71 158.97, 120.07 163.09, 108.26 165.16 C96.45 167.23, 83.14 168.12, 71.04 165.36 C58.93 162.59, 45.71 155.6, 35.6 148.58 C25.49 141.56, 16.1 133.03, 10.37 123.24 C4.64 113.44, 1.92 101.16, 1.21 89.8 C0.5 78.44, 2.09 65.83, 6.09 55.07 C10.08 44.32, 16.79 33.6, 25.17 25.28 C33.55 16.96, 44.84 9.35, 56.38 5.16 C67.92 0.96, 88.3 0.95, 94.4 0.14 C100.51 -0.67, 93.02 -0.84, 93.01 0.29" stroke="#c92a2a" stroke-width="1" fill="none"></path></g><g transform="translate(177.84572025931638 131.83332061767578) rotate(0 86.5 12.5)"><text x="86.5" y="18" font-family="Virgil, Segoe UI Emoji" font-size="20px" fill="#c92a2a" text-anchor="middle" style="white-space: pre;" direction="ltr">Login Page</text></g><g stroke-linecap="round" transform="translate(526.3457202593164 60.99999237060547) rotate(0 91.5 83.66666412353516)"><path d="M80.89 0.62 C92.38 -1.98, 105.91 0.93, 117.72 4.08 C129.52 7.24, 142.37 12.06, 151.72 19.56 C161.07 27.06, 168.49 38.76, 173.83 49.09 C179.18 59.42, 183.62 70.32, 183.78 81.53 C183.95 92.73, 179.78 105.66, 174.84 116.33 C169.89 126.99, 162.84 137.63, 154.11 145.49 C145.38 153.36, 134.17 159.91, 122.44 163.53 C110.72 167.16, 96.14 168.3, 83.77 167.25 C71.41 166.2, 59.02 162.62, 48.25 157.22 C37.49 151.82, 26.9 143.88, 19.18 134.85 C11.47 125.82, 4.94 114.11, 1.96 103.03 C-1.01 91.96, -1.16 79.68, 1.32 68.39 C3.81 57.09, 9.57 44.72, 16.88 35.25 C24.2 25.79, 33.68 17.39, 45.2 11.6 C56.72 5.81, 78.21 2.29, 86.02 0.51 C93.83 -1.27, 91.94 -0.51, 92.04 0.91 M72.53 2.32 C83.59 -1.38, 98.32 -0.49, 110.25 1.87 C122.17 4.23, 134.22 9.89, 144.08 16.51 C153.95 23.13, 163.27 32.04, 169.44 41.6 C175.61 51.15, 179.61 62.58, 181.13 73.83 C182.64 85.09, 182.32 97.99, 178.53 109.14 C174.74 120.29, 166.8 132.21, 158.37 140.73 C149.95 149.25, 139.19 155.75, 127.99 160.26 C116.8 164.77, 103.4 167.75, 91.19 167.79 C78.97 167.83, 66.14 165.29, 54.69 160.5 C43.24 155.72, 30.76 147.41, 22.49 139.05 C14.22 130.69, 8.49 121, 5.07 110.35 C1.65 99.71, 0.89 86.52, 1.97 75.17 C3.05 63.81, 5.49 52.19, 11.55 42.21 C17.61 32.22, 27.97 22.08, 38.33 15.25 C48.7 8.41, 68.03 3.4, 73.74 1.21 C79.44 -0.98, 72.71 0.71, 72.58 2.12" stroke="#c92a2a" stroke-width="1" fill="none"></path></g><g transform="translate(531.3457202593164 132.16665649414062) rotate(0 86.5 12.5)"><text x="86.5" y="18" font-family="Virgil, Segoe UI Emoji" font-size="20px" fill="#c92a2a" text-anchor="middle" style="white-space: pre;" direction="ltr">Welcome Page</text></g><g stroke-linecap="round" transform="translate(160.67906376517575 461.00000762939453) rotate(0 91.5 83.66666412353516)"><path d="M83.87 0.48 C95.57 -1.53, 110.12 1.24, 122.04 4.94 C133.96 8.63, 146.26 14.81, 155.4 22.65 C164.54 30.49, 172.11 41.5, 176.87 51.98 C181.62 62.46, 184.52 74.2, 183.93 85.52 C183.35 96.84, 178.77 109.52, 173.36 119.88 C167.95 130.23, 160.71 140.4, 151.46 147.63 C142.22 154.87, 129.96 160.06, 117.89 163.3 C105.81 166.54, 91.49 168.58, 79 167.07 C66.5 165.57, 53.34 160.39, 42.93 154.27 C32.51 148.14, 23.28 139.47, 16.5 130.34 C9.72 121.21, 4.73 110.39, 2.25 99.47 C-0.23 88.54, -1.11 75.98, 1.61 64.79 C4.34 53.6, 10.89 41.31, 18.6 32.35 C26.32 23.38, 34.56 16.33, 47.88 11.01 C61.21 5.7, 88.02 1.56, 98.56 0.43 C109.11 -0.7, 111.52 2.93, 111.16 4.22 M93.7 -0.9 C105.89 -2.2, 120.2 1.68, 131.26 6.42 C142.33 11.15, 152.2 18.76, 160.09 27.52 C167.98 36.27, 175.11 48.12, 178.61 58.96 C182.1 69.8, 182.25 81.5, 181.06 92.57 C179.86 103.64, 177.61 115.52, 171.47 125.41 C165.32 135.31, 154.61 145.33, 144.17 151.94 C133.73 158.55, 121.18 162.72, 108.84 165.08 C96.5 167.43, 82.09 168.58, 70.11 166.06 C58.14 163.54, 46.83 157.01, 36.97 149.96 C27.12 142.91, 16.86 133.58, 10.99 123.74 C5.11 113.9, 2.99 102.07, 1.72 90.94 C0.45 79.81, -0.65 67.42, 3.36 56.96 C7.37 46.51, 17.32 36.35, 25.79 28.2 C34.25 20.06, 42.97 12.91, 54.13 8.09 C65.29 3.26, 86.53 0.09, 92.75 -0.73 C98.97 -1.55, 91.41 1.59, 91.43 3.15" stroke="#c92a2a" stroke-width="1" fill="none"></path></g><g transform="translate(165.67906376517575 532.1666717529297) rotate(0 86.5 12.5)"><text x="86.5" y="18" font-family="Virgil, Segoe UI Emoji" font-size="20px" fill="#c92a2a" text-anchor="middle" style="white-space: pre;" direction="ltr">Login Invalid</text></g><g stroke-linecap="round" transform="translate(519.0124072710352 442.3333206176758) rotate(0 91.5 83.66666412353516)"><path d="M109.41 1.98 C121.27 2.99, 135.57 9.48, 145.59 16.03 C155.61 22.57, 163.28 31.44, 169.54 41.26 C175.79 51.07, 181.64 63.47, 183.1 74.9 C184.57 86.34, 182.2 99.24, 178.32 109.85 C174.44 120.46, 168.07 130.36, 159.81 138.54 C151.54 146.73, 139.98 154.31, 128.72 158.96 C117.46 163.62, 104.58 166.4, 92.27 166.47 C79.96 166.54, 66.4 163.77, 54.86 159.37 C43.32 154.96, 31.44 148.32, 23.04 140.04 C14.63 131.77, 8.12 120.6, 4.43 109.72 C0.75 98.84, -0.36 85.93, 0.92 74.78 C2.19 63.63, 6.04 52.52, 12.07 42.8 C18.11 33.08, 27.25 23.35, 37.14 16.47 C47.02 9.59, 58.87 4, 71.4 1.51 C83.93 -0.97, 105 1.08, 112.32 1.56 C119.64 2.04, 115.61 2.82, 115.33 4.41 M85.28 0.53 C96.92 -1.59, 110.78 1.66, 122.57 5.69 C134.35 9.73, 147.1 17.01, 155.98 24.73 C164.85 32.45, 171.08 41.52, 175.81 52.02 C180.54 62.52, 184.67 76.27, 184.35 87.73 C184.03 99.2, 179.73 110.76, 173.9 120.8 C168.08 130.85, 158.8 140.97, 149.41 148.03 C140.01 155.09, 129.37 160.02, 117.55 163.17 C105.74 166.31, 90.72 168.2, 78.5 166.89 C66.28 165.58, 54.85 161.59, 44.26 155.3 C33.67 149.02, 22.31 138.95, 14.98 129.17 C7.65 119.38, 2.46 107.55, 0.27 96.6 C-1.92 85.65, -1.53 74.14, 1.82 63.45 C5.16 52.75, 12.63 41.14, 20.34 32.43 C28.04 23.72, 37.17 16.68, 48.04 11.18 C58.9 5.67, 79.27 0.75, 85.52 -0.6 C91.77 -1.95, 85.48 1.58, 85.54 3.08" stroke="#c92a2a" stroke-width="1" fill="none"></path></g><g transform="translate(524.0124072710352 513.4999847412109) rotate(0 86.5 12.5)"><text x="86.5" y="18" font-family="Virgil, Segoe UI Emoji" font-size="20px" fill="#c92a2a" text-anchor="middle" style="white-space: pre;" direction="ltr">Logout Page</text></g><g stroke-linecap="round" transform="translate(795.0124683061914 243.66663360595703) rotate(0 91.5 83.66666412353516)"><path d="M102.19 -0.29 C113.9 0.02, 127.68 7.05, 138.52 13.11 C149.36 19.17, 159.93 26.96, 167.22 36.1 C174.5 45.24, 180.13 56.93, 182.22 67.95 C184.3 78.98, 182.64 91.12, 179.71 102.25 C176.78 113.39, 172.13 125.57, 164.63 134.77 C157.13 143.97, 145.47 152.19, 134.7 157.44 C123.92 162.68, 112.08 165.34, 99.99 166.24 C87.91 167.14, 73.93 166.58, 62.17 162.83 C50.4 159.09, 38.54 151.69, 29.4 143.76 C20.27 135.84, 12.21 125.62, 7.35 115.29 C2.48 104.96, 0.08 93.03, 0.22 81.78 C0.36 70.53, 3.02 58.09, 8.2 47.78 C13.38 37.47, 21.72 27.41, 31.31 19.94 C40.89 12.47, 51.34 5.51, 65.7 2.94 C80.06 0.38, 106.55 3.46, 117.45 4.55 C128.34 5.63, 131.5 8.13, 131.09 9.47 M115.36 2.31 C127.03 4.02, 139.61 13.09, 149.42 20.54 C159.23 27.98, 168.57 36.95, 174.21 46.99 C179.85 57.03, 182.66 69.31, 183.27 80.78 C183.89 92.25, 182.3 105.14, 177.9 115.81 C173.49 126.49, 165.9 136.88, 156.82 144.84 C147.74 152.81, 135.14 160.12, 123.43 163.62 C111.72 167.12, 98.97 166.64, 86.54 165.83 C74.11 165.02, 60.07 163.64, 48.84 158.76 C37.61 153.87, 26.67 145.67, 19.17 136.52 C11.66 127.38, 6.83 115.03, 3.81 103.9 C0.8 92.77, -0.64 80.87, 1.09 69.74 C2.81 58.61, 7.1 46.84, 14.18 37.12 C21.25 27.39, 32.62 17.69, 43.54 11.41 C54.46 5.13, 67.38 0.87, 79.72 -0.58 C92.05 -2.03, 111.59 1.65, 117.56 2.72 C123.53 3.79, 116.4 4.49, 115.54 5.84" stroke="#c92a2a" stroke-width="1" fill="none"></path></g><g transform="translate(800.0124683061914 314.8332977294922) rotate(0 86.5 12.5)"><text x="86.5" y="18" font-family="Virgil, Segoe UI Emoji" font-size="20px" fill="#c92a2a" text-anchor="middle" style="white-space: pre;" direction="ltr">Avatar Modal</text></g><g stroke-linecap="round"><g transform="translate(354.8457202593164 132.6666717529297) rotate(0 85.4418201929098 -18.546087501198045)"><path d="M0.8 0.44 C14.29 -5.71, 53.26 -36.51, 81.65 -37.53 C110.04 -38.56, 156.45 -11.07, 171.13 -5.71 M-0.25 -0.38 C13.05 -6.28, 52.33 -35.4, 80.87 -36.1 C109.4 -36.8, 156.13 -9.89, 170.96 -4.6" stroke="#000000" stroke-width="1" fill="none"></path></g><g transform="translate(354.8457202593164 132.6666717529297) rotate(0 85.4418201929098 -18.546087501198045)"><path d="M141.77 -6.29 C151.42 -4.33, 161.84 -5.91, 170.87 -5.95 M140.4 -6.01 C149.04 -5.92, 157.76 -4.84, 170.13 -5.4" stroke="#000000" stroke-width="1" fill="none"></path></g><g transform="translate(354.8457202593164 132.6666717529297) rotate(0 85.4418201929098 -18.546087501198045)"><path d="M150.2 -25 C156.72 -16.28, 164.12 -11.16, 170.87 -5.95 M148.82 -24.72 C155.03 -19.21, 161.34 -12.77, 170.13 -5.4" stroke="#000000" stroke-width="1" fill="none"></path></g></g><g transform="translate(394.84565922416016 38.33332824707031) rotate(0 49.5 25.5)"><text x="0" y="18.5" font-family="Virgil, Segoe UI Emoji" font-size="20px" fill="#09ebee" text-anchor="start" style="white-space: pre;" direction="ltr">UserName,</text><text x="0" y="44" font-family="Virgil, Segoe UI Emoji" font-size="20px" fill="#09ebee" text-anchor="start" style="white-space: pre;" direction="ltr">Password</text></g><g stroke-linecap="round"><g transform="translate(706.1790332475977 168.6666717529297) rotate(0 66.66668701171875 40)"><path d="M0 0 C15.67 2.67, 71.78 2.67, 94 16 C116.22 29.33, 126.78 69.33, 133.33 80 M0 0 C15.67 2.67, 71.78 2.67, 94 16 C116.22 29.33, 126.78 69.33, 133.33 80" stroke="#000000" stroke-width="1" fill="none"></path></g><g transform="translate(706.1790332475977 168.6666717529297) rotate(0 66.66668701171875 40)"><path d="M112.43 58.48 C116.92 63.11, 121.41 67.73, 133.33 80 M112.43 58.48 C119.79 66.07, 127.16 73.65, 133.33 80" stroke="#000000" stroke-width="1" fill="none"></path></g><g transform="translate(706.1790332475977 168.6666717529297) rotate(0 66.66668701171875 40)"><path d="M131.15 50.08 C131.62 56.51, 132.09 62.94, 133.33 80 M131.15 50.08 C131.92 60.62, 132.69 71.17, 133.33 80" stroke="#000000" stroke-width="1" fill="none"></path></g></g><g transform="translate(780.8457202593164 141.00001525878906) rotate(0 77 12.5)"><text x="0" y="18" font-family="Virgil, Segoe UI Emoji" font-size="20px" fill="#09ebee" text-anchor="start" style="white-space: pre;" direction="ltr">Click on Avatar</text></g><g stroke-linecap="round"><g transform="translate(820.8457202593164 390.00001525878906) rotate(0 -62.666656494140625 54.333343505859375)"><path d="M0 0 C-7.44 15.56, -23.78 75.22, -44.67 93.33 C-65.56 111.44, -111.89 106.11, -125.33 108.67 M0 0 C-7.44 15.56, -23.78 75.22, -44.67 93.33 C-65.56 111.44, -111.89 106.11, -125.33 108.67" stroke="#000000" stroke-width="1" fill="none"></path></g><g transform="translate(820.8457202593164 390.00001525878906) rotate(0 -62.666656494140625 54.333343505859375)"><path d="M-97.72 96.95 C-103.5 99.4, -109.29 101.86, -125.33 108.67 M-97.72 96.95 C-106.98 100.88, -116.25 104.81, -125.33 108.67" stroke="#000000" stroke-width="1" fill="none"></path></g><g transform="translate(820.8457202593164 390.00001525878906) rotate(0 -62.666656494140625 54.333343505859375)"><path d="M-96.64 117.44 C-102.65 115.6, -108.66 113.76, -125.33 108.67 M-96.64 117.44 C-106.27 114.5, -115.89 111.55, -125.33 108.67" stroke="#000000" stroke-width="1" fill="none"></path></g></g><g transform="translate(808.1790332475977 463.6667022705078) rotate(0 75.5 12.5)"><text x="0" y="18" font-family="Virgil, Segoe UI Emoji" font-size="20px" fill="#09ebee" text-anchor="start" style="white-space: pre;" direction="ltr">Click on Logout</text></g><g stroke-linecap="round"><g transform="translate(575.5124072710352 223.3333282470703) rotate(0 -13.66668701171875 109.66668701171875)"><path d="M0 0 C-7.11 20.89, -45.22 88.78, -42.67 125.33 C-40.11 161.89, 5.67 203.67, 15.33 219.33 M0 0 C-7.11 20.89, -45.22 88.78, -42.67 125.33 C-40.11 161.89, 5.67 203.67, 15.33 219.33" stroke="#000000" stroke-width="1" fill="none"></path></g><g transform="translate(575.5124072710352 223.3333282470703) rotate(0 -13.66668701171875 109.66668701171875)"><path d="M-10.32 203.78 C-3.49 207.92, 3.34 212.06, 15.33 219.33 M-10.32 203.78 C-3.09 208.16, 4.13 212.54, 15.33 219.33" stroke="#000000" stroke-width="1" fill="none"></path></g><g transform="translate(575.5124072710352 223.3333282470703) rotate(0 -13.66668701171875 109.66668701171875)"><path d="M5.68 190.93 C8.25 198.49, 10.82 206.06, 15.33 219.33 M5.68 190.93 C8.4 198.93, 11.12 206.93, 15.33 219.33" stroke="#000000" stroke-width="1" fill="none"></path></g></g><g transform="translate(553.5124072710352 286.3333282470703) rotate(0 53 38)"><text x="0" y="18.333333333333332" font-family="Virgil, Segoe UI Emoji" font-size="20px" fill="#09ebee" text-anchor="start" style="white-space: pre;" direction="ltr">Clear local</text><text x="0" y="43.666666666666664" font-family="Virgil, Segoe UI Emoji" font-size="20px" fill="#09ebee" text-anchor="start" style="white-space: pre;" direction="ltr">storage,</text><text x="0" y="69" font-family="Virgil, Segoe UI Emoji" font-size="20px" fill="#09ebee" text-anchor="start" style="white-space: pre;" direction="ltr">Cookies</text></g><g stroke-linecap="round"><g transform="translate(179.512376753457 184.00001525878906) rotate(0 -50 152.16665649414062)"><path d="M0 0 C-16.67 27.72, -99.44 115.61, -100 166.33 C-100.56 217.06, -19.44 281.33, -3.33 304.33 M0 0 C-16.67 27.72, -99.44 115.61, -100 166.33 C-100.56 217.06, -19.44 281.33, -3.33 304.33" stroke="#000000" stroke-width="1" fill="none"></path></g><g transform="translate(179.512376753457 184.00001525878906) rotate(0 -50 152.16665649414062)"><path d="M-30.01 290.61 C-20.22 295.64, -10.43 300.68, -3.33 304.33 M-30.01 290.61 C-22.32 294.56, -14.63 298.52, -3.33 304.33" stroke="#000000" stroke-width="1" fill="none"></path></g><g transform="translate(179.512376753457 184.00001525878906) rotate(0 -50 152.16665649414062)"><path d="M-14.95 276.67 C-10.68 286.82, -6.42 296.97, -3.33 304.33 M-14.95 276.67 C-11.6 284.64, -8.25 292.62, -3.33 304.33" stroke="#000000" stroke-width="1" fill="none"></path></g></g><g transform="translate(1.51234623587888 277.33335876464844) rotate(302.6135633892041 65 25.5)"><text x="0" y="18.5" font-family="Virgil, Segoe UI Emoji" font-size="20px" fill="#09ebee" text-anchor="start" style="white-space: pre;" direction="ltr">No Username,</text><text x="0" y="44" font-family="Virgil, Segoe UI Emoji" font-size="20px" fill="#09ebee" text-anchor="start" style="white-space: pre;" direction="ltr">No Password</text></g><g stroke-linecap="round"><g transform="translate(212.17906376517575 218.3333282470703) rotate(0 -28.333343505859375 123)"><path d="M0 0 C-9.44 19, -56.67 73, -56.67 114 C-56.67 155, -9.44 224, 0 246 M0 0 C-9.44 19, -56.67 73, -56.67 114 C-56.67 155, -9.44 224, 0 246" stroke="#000000" stroke-width="1" fill="none"></path></g><g transform="translate(212.17906376517575 218.3333282470703) rotate(0 -28.333343505859375 123)"><path d="M-22.4 226.04 C-14.66 232.94, -6.92 239.83, 0 246 M-22.4 226.04 C-17.82 230.12, -13.24 234.2, 0 246" stroke="#000000" stroke-width="1" fill="none"></path></g><g transform="translate(212.17906376517575 218.3333282470703) rotate(0 -28.333343505859375 123)"><path d="M-4.33 216.31 C-2.84 226.57, -1.34 236.83, 0 246 M-4.33 216.31 C-3.45 222.38, -2.56 228.45, 0 246" stroke="#000000" stroke-width="1" fill="none"></path></g></g><g stroke-linecap="round"><g transform="translate(253.512376753457 232.3333282470703) rotate(0 19.88267520141602 110.78599925231933)"><path d="M0 0 C0 0, -7.11 -19.11, 0 0 C7.11 19.11, 39.44 76.33, 42.67 114.67 C45.89 153, 23.22 210.78, 19.33 230 M0 0 C0 0, -7.11 -19.11, 0 0 C7.11 19.11, 39.44 76.33, 42.67 114.67 C45.89 153, 23.22 210.78, 19.33 230" stroke="#000000" stroke-width="1" fill="none"></path></g><g transform="translate(253.512376753457 232.3333282470703) rotate(0 19.88267520141602 110.78599925231933)"><path d="M17.1 200.08 C17.65 207.4, 18.19 214.71, 19.33 230 M17.1 200.08 C17.76 208.89, 18.42 217.71, 19.33 230" stroke="#000000" stroke-width="1" fill="none"></path></g><g transform="translate(253.512376753457 232.3333282470703) rotate(0 19.88267520141602 110.78599925231933)"><path d="M36.85 205.65 C32.57 211.6, 28.29 217.55, 19.33 230 M36.85 205.65 C31.69 212.82, 26.53 219.99, 19.33 230" stroke="#000000" stroke-width="1" fill="none"></path></g></g><g stroke-linecap="round"><g transform="translate(307.51237675345703 219.6666717529297) rotate(0 39 132.3333282470703)"><path d="M0 0 C13 20, 76 75.89, 78 120 C80 164.11, 23 240.56, 12 264.67 M0 0 C13 20, 76 75.89, 78 120 C80 164.11, 23 240.56, 12 264.67" stroke="#000000" stroke-width="1" fill="none"></path></g><g transform="translate(307.51237675345703 219.6666717529297) rotate(0 39 132.3333282470703)"><path d="M17.29 235.14 C15.26 246.43, 13.24 257.73, 12 264.67 M17.29 235.14 C15.62 244.43, 13.96 253.72, 12 264.67" stroke="#000000" stroke-width="1" fill="none"></path></g><g transform="translate(307.51237675345703 219.6666717529297) rotate(0 39 132.3333282470703)"><path d="M35.03 245.44 C26.22 252.8, 17.41 260.15, 12 264.67 M35.03 245.44 C27.79 251.49, 20.54 257.54, 12 264.67" stroke="#000000" stroke-width="1" fill="none"></path></g></g><g transform="translate(81.87054742983054 261.096815495758) rotate(302.6135633892041 63.500000000000014 25.5)"><text x="0" y="18.5" font-family="Virgil, Segoe UI Emoji" font-size="20px" fill="#09ebee" text-anchor="start" style="white-space: pre;" direction="ltr">Username,</text><text x="0" y="44" font-family="Virgil, Segoe UI Emoji" font-size="20px" fill="#09ebee" text-anchor="start" style="white-space: pre;" direction="ltr">No Password</text></g><g transform="translate(221.512376753457 271.3333282470703) rotate(60.44846750737875 66.74509803921563 26.18461538461537)"><text x="0" y="18.18461538461536" font-family="Virgil, Segoe UI Emoji" font-size="20.536953242835573px" fill="#09ebee" text-anchor="start" style="white-space: pre;" direction="ltr">No Username,</text><text x="0" y="44.36923076923072" font-family="Virgil, Segoe UI Emoji" font-size="20.536953242835573px" fill="#09ebee" text-anchor="start" style="white-space: pre;" direction="ltr">Password</text></g><g transform="translate(317.6508408111981 257.3948725005412) rotate(60.44846750737875 76.5 26)"><text x="0" y="18" font-family="Virgil, Segoe UI Emoji" font-size="20.536953242835573px" fill="#09ebee" text-anchor="start" style="white-space: pre;" direction="ltr">Long Username,</text><text x="0" y="44" font-family="Virgil, Segoe UI Emoji" font-size="20.536953242835573px" fill="#09ebee" text-anchor="start" style="white-space: pre;" direction="ltr">Long Password</text></g><g transform="translate(327.51237675345703 10) rotate(0 215.5 12.5)"><text x="0" y="18" font-family="Virgil, Segoe UI Emoji" font-size="20px" fill="#000000" text-anchor="start" style="white-space: pre;" direction="ltr">LOGIN/LOGOUT FINITE STATE MACHINE</text></g><g transform="translate(849.9882497294865 576.2551680708015) rotate(0 60.5 12.5)"><text x="0" y="18" font-family="Virgil, Segoe UI Emoji" font-size="20px" fill="#c92a2a" text-anchor="start" style="white-space: pre;" direction="ltr">Red: States</text></g><g transform="translate(851.5562078866056 603.6948305912663) rotate(0 110.5 12.5)"><text x="0" y="18" font-family="Virgil, Segoe UI Emoji" font-size="20px" fill="#09ebee" text-anchor="start" style="white-space: pre;" direction="ltr">Turquoise: Transitions</text></g></svg>